<svg xmlns="http://www.w3.org/2000/svg" xmlns:xlink="http://www.w3.org/1999/xlink" width="500" zoomAndPan="magnify" viewBox="0 0 375 374.999991" height="500" preserveAspectRatio="xMidYMid meet" version="1.0"><defs><g/><clipPath id="c981582ba4"><path d="M 118 46 L 312 46 L 312 225 L 118 225 Z M 118 46 " clip-rule="nonzero"/></clipPath><clipPath id="6a37e0f7f2"><path d="M 126.609375 232.988281 L 109.480469 56.132812 L 302.789062 37.40625 L 319.917969 214.265625 Z M 126.609375 232.988281 " clip-rule="nonzero"/></clipPath><clipPath id="4fed560f6a"><path d="M 126.609375 232.988281 L 109.480469 56.132812 L 302.789062 37.40625 L 319.917969 214.265625 Z M 126.609375 232.988281 " clip-rule="nonzero"/></clipPath><clipPath id="7261be55b9"><path d="M 126.613281 232.988281 L 109.484375 56.132812 L 302.871094 37.398438 L 320.003906 214.257812 Z M 126.613281 232.988281 " clip-rule="nonzero"/></clipPath><clipPath id="46c8e0d048"><path d="M 126.613281 232.988281 L 109.484375 56.148438 L 302.78125 37.425781 L 319.910156 214.265625 Z M 126.613281 232.988281 " clip-rule="nonzero"/></clipPath><clipPath id="52d6ef028c"><path d="M 60.195312 38 L 292.976562 38 L 292.976562 222 L 60.195312 222 Z M 60.195312 38 " clip-rule="nonzero"/></clipPath><clipPath id="cedd9e659f"><path d="M 106 91 L 264 91 L 264 233.089844 L 106 233.089844 Z M 106 91 " clip-rule="nonzero"/></clipPath></defs><g clip-path="url(#c981582ba4)"><g clip-path="url(#6a37e0f7f2)"><g clip-path="url(#4fed560f6a)"><g clip-path="url(#7261be55b9)"><g clip-path="url(#46c8e0d048)"><path fill="#a55acd" d="M 153.890625 66.675781 C 147.324219 71.75 141.492188 77.878906 136.246094 84.285156 C 129.742188 93.929688 124.320312 104.539062 122.144531 115.984375 C 117.242188 129.304688 116.980469 144.261719 119.925781 158.125 C 123.324219 171.820312 132.730469 190.414062 142.820312 200.300781 C 142.914062 200.386719 143.015625 200.46875 143.109375 200.554688 C 149.625 207.445312 157.964844 212.605469 166.738281 216.183594 C 168.378906 216.796875 170.050781 217.316406 171.734375 217.792969 C 173.480469 218.597656 175.242188 219.371094 177.019531 220.074219 C 183.46875 222.269531 190.191406 223.648438 197.035156 224.320312 C 204.574219 225.03125 211.367188 225.371094 218.1875 223.71875 C 225.1875 223.179688 232.144531 221.914062 238.863281 220.003906 C 276.585938 209.101562 306.75 174.515625 310.753906 135.292969 C 312.640625 115.6875 307.410156 94.980469 294.378906 79.929688 C 277.84375 61.042969 253.035156 50.421875 228.269531 48.191406 C 227.410156 48.113281 226.550781 48.0625 225.691406 48.019531 C 224.917969 47.890625 224.136719 47.777344 223.355469 47.671875 C 198.214844 43.789062 174.269531 52.007812 153.890625 66.675781 " fill-opacity="1" fill-rule="nonzero"/></g></g></g></g></g><g clip-path="url(#52d6ef028c)"><path fill="#100f0d" d="M 126.003906 176.480469 L 91.230469 195.667969 C 90.417969 196.113281 90.121094 197.140625 90.570312 197.953125 C 90.878906 198.507812 91.453125 198.824219 92.042969 198.824219 C 92.320312 198.824219 92.605469 198.761719 92.855469 198.617188 L 127.628906 179.433594 C 128.445312 178.988281 128.742188 177.960938 128.289062 177.140625 C 127.84375 176.328125 126.808594 176.019531 126.003906 176.480469 Z M 127.390625 195.246094 C 126.601562 194.753906 125.5625 194.972656 125.058594 195.753906 C 120.816406 202.40625 114.976562 207.824219 107.710938 211.847656 C 94.675781 219.03125 79.40625 219.957031 66.855469 214.320312 C 64.984375 213.519531 63.800781 211.359375 64.089844 209.296875 C 66.035156 195.671875 74.953125 183.265625 87.9375 176.109375 C 96.949219 171.171875 106.785156 169.160156 116.386719 170.289062 C 117.28125 170.382812 118.152344 169.734375 118.257812 168.816406 C 118.367188 167.894531 117.703125 167.050781 116.785156 166.945312 C 106.515625 165.726562 95.960938 167.871094 86.3125 173.160156 C 72.402344 180.820312 62.855469 194.148438 60.757812 208.824219 C 60.242188 212.390625 62.246094 216.007812 65.5 217.40625 C 71.371094 220.039062 77.785156 221.347656 84.3125 221.347656 C 92.785156 221.347656 101.453125 219.144531 109.339844 214.804688 C 117.105469 210.496094 123.351562 204.695312 127.898438 197.574219 C 128.402344 196.789062 128.171875 195.742188 127.390625 195.246094 Z M 264.292969 119.695312 C 263.753906 118.925781 262.695312 118.75 261.953125 119.273438 L 230.839844 140.921875 C 230.070312 141.457031 229.878906 142.503906 230.417969 143.265625 C 230.742188 143.738281 231.265625 143.992188 231.796875 143.992188 C 232.128906 143.992188 232.46875 143.894531 232.757812 143.6875 L 263.871094 122.039062 C 264.632812 121.507812 264.824219 120.457031 264.292969 119.695312 Z M 287.214844 97.769531 C 273.128906 93.152344 256.953125 95.816406 243.90625 104.898438 C 238.207031 108.847656 234.464844 112.300781 231.417969 116.457031 C 230.871094 117.207031 231.035156 118.257812 231.777344 118.8125 C 232.53125 119.363281 233.582031 119.210938 234.132812 118.449219 C 236.945312 114.617188 240.441406 111.394531 245.824219 107.671875 C 258.011719 99.1875 273.097656 96.683594 286.171875 100.976562 C 288.136719 101.605469 289.535156 103.601562 289.4375 105.636719 C 288.890625 119.386719 281.304688 132.683594 269.136719 141.199219 C 262.296875 145.957031 254.703125 148.773438 246.554688 149.566406 C 245.628906 149.660156 244.949219 150.484375 245.042969 151.410156 C 245.125 152.28125 245.863281 152.929688 246.71875 152.929688 C 246.777344 152.929688 246.832031 152.929688 246.882812 152.921875 C 255.609375 152.066406 263.746094 149.054688 271.0625 143.964844 C 284.09375 134.84375 292.222656 120.566406 292.808594 105.78125 C 292.972656 102.242188 290.621094 98.871094 287.214844 97.769531 Z M 161.53125 71.578125 C 161.28125 70.683594 160.347656 70.179688 159.453125 70.414062 C 158.558594 70.671875 158.03125 71.597656 158.289062 72.496094 L 168.257812 107.816406 C 168.472656 108.558594 169.144531 109.042969 169.882812 109.042969 C 170.03125 109.042969 170.191406 109.019531 170.339844 108.980469 C 171.234375 108.722656 171.757812 107.796875 171.507812 106.894531 Z M 184.597656 71.941406 C 186.890625 80.054688 187.191406 88.199219 185.503906 96.15625 C 185.316406 97.0625 184.453125 97.648438 183.515625 97.453125 C 182.601562 97.265625 182.023438 96.371094 182.210938 95.457031 C 183.785156 88.042969 183.496094 80.441406 181.363281 72.855469 C 177.332031 58.5625 167.261719 47.050781 154.417969 42.046875 C 152.539062 41.316406 150.101562 42.003906 148.882812 43.617188 C 140.582031 54.609375 138.019531 69.699219 142.042969 83.980469 C 144.472656 92.414062 148.949219 99.921875 154.984375 105.675781 C 155.65625 106.316406 155.683594 107.382812 155.039062 108.054688 C 154.710938 108.40625 154.265625 108.578125 153.824219 108.578125 C 153.402344 108.578125 152.988281 108.425781 152.660156 108.117188 C 146.191406 101.953125 141.398438 93.925781 138.804688 84.898438 C 134.492188 69.605469 137.261719 53.410156 146.191406 41.574219 C 148.351562 38.746094 152.320312 37.621094 155.636719 38.910156 C 169.464844 44.289062 180.292969 56.636719 184.597656 71.941406 " fill-opacity="1" fill-rule="nonzero"/></g><g clip-path="url(#cedd9e659f)"><path fill="#100f0d" d="M 138.269531 133.1875 C 137.761719 133.699219 137.054688 133.847656 136.367188 133.628906 C 135.6875 133.402344 135.230469 132.835938 135.140625 132.128906 L 134.800781 129.597656 C 134.726562 129.042969 134.390625 128.566406 133.894531 128.3125 L 131.613281 127.160156 C 130.980469 126.832031 130.601562 126.207031 130.605469 125.492188 C 130.621094 124.773438 131.011719 124.160156 131.652344 123.851562 L 133.964844 122.75 C 134.460938 122.511719 134.8125 122.039062 134.902344 121.492188 L 135.296875 118.964844 C 135.410156 118.257812 135.882812 117.707031 136.570312 117.492188 C 136.753906 117.433594 136.941406 117.402344 137.128906 117.402344 C 137.621094 117.402344 138.089844 117.605469 138.445312 117.980469 L 140.210938 119.835938 C 140.59375 120.238281 141.160156 120.414062 141.695312 120.339844 L 144.222656 119.933594 C 144.90625 119.828125 145.59375 120.097656 146.007812 120.691406 C 146.425781 121.269531 146.46875 122 146.128906 122.632812 L 144.914062 124.878906 C 144.648438 125.363281 144.644531 125.949219 144.894531 126.449219 L 146.054688 128.722656 C 146.382812 129.363281 146.316406 130.089844 145.890625 130.664062 C 145.46875 131.234375 144.808594 131.519531 144.082031 131.367188 L 141.570312 130.90625 C 141.027344 130.820312 140.460938 130.984375 140.078125 131.375 Z M 141.835938 134.386719 L 143.472656 134.6875 C 145.429688 135.046875 147.402344 134.277344 148.589844 132.679688 C 149.789062 131.070312 149.964844 128.96875 149.058594 127.191406 L 148.296875 125.703125 L 149.089844 124.238281 C 150.039062 122.480469 149.914062 120.371094 148.761719 118.738281 C 147.609375 117.105469 145.667969 116.300781 143.691406 116.601562 L 142.035156 116.867188 L 140.890625 115.65625 C 139.503906 114.210938 137.457031 113.671875 135.5625 114.273438 C 133.65625 114.871094 132.28125 116.464844 131.96875 118.4375 L 131.710938 120.09375 L 130.199219 120.808594 C 128.398438 121.679688 127.261719 123.457031 127.238281 125.453125 C 127.21875 127.449219 128.308594 129.25 130.089844 130.15625 L 131.578125 130.914062 L 131.796875 132.570312 C 132.0625 134.554688 133.398438 136.179688 135.292969 136.824219 C 135.847656 137.011719 136.414062 137.105469 136.972656 137.105469 C 138.332031 137.105469 139.648438 136.570312 140.652344 135.570312 Z M 202.292969 112.671875 L 204.605469 111.570312 C 205.109375 111.332031 205.453125 110.859375 205.542969 110.308594 L 205.933594 107.785156 C 206.046875 107.078125 206.519531 106.523438 207.203125 106.308594 C 207.386719 106.253906 207.578125 106.222656 207.773438 106.222656 C 208.257812 106.222656 208.722656 106.421875 209.085938 106.800781 L 210.851562 108.652344 C 211.222656 109.050781 211.789062 109.238281 212.332031 109.15625 L 214.855469 108.753906 C 215.59375 108.632812 216.242188 108.925781 216.65625 109.511719 C 217.066406 110.089844 217.117188 110.820312 216.769531 111.449219 L 215.554688 113.691406 C 215.289062 114.183594 215.285156 114.769531 215.535156 115.261719 L 216.695312 117.546875 C 217.023438 118.183594 216.960938 118.910156 216.53125 119.480469 C 216.101562 120.054688 215.449219 120.339844 214.71875 120.191406 L 212.203125 119.734375 C 211.664062 119.613281 211.101562 119.800781 210.710938 120.199219 L 208.910156 122.007812 C 208.394531 122.515625 207.664062 122.675781 207.015625 122.449219 C 206.335938 122.222656 205.875 121.660156 205.78125 120.949219 L 205.441406 118.410156 C 205.359375 117.863281 205.027344 117.382812 204.535156 117.132812 L 202.253906 115.972656 C 201.621094 115.652344 201.242188 115.027344 201.246094 114.316406 C 201.253906 113.597656 201.652344 112.988281 202.292969 112.671875 Z M 200.730469 118.976562 L 202.21875 119.738281 L 202.4375 121.394531 C 202.703125 123.375 204.039062 125 205.925781 125.640625 C 206.488281 125.832031 207.054688 125.925781 207.621094 125.925781 C 208.972656 125.925781 210.289062 125.390625 211.292969 124.386719 L 212.46875 123.203125 L 214.113281 123.511719 C 216.066406 123.851562 218.042969 123.097656 219.234375 121.492188 C 220.421875 119.890625 220.605469 117.792969 219.691406 116.015625 L 218.9375 114.523438 L 219.734375 113.050781 C 220.6875 111.292969 220.554688 109.1875 219.394531 107.558594 C 218.242188 105.925781 216.277344 105.121094 214.332031 105.421875 L 212.675781 105.6875 L 211.519531 104.476562 C 210.152344 103.035156 208.117188 102.5 206.199219 103.089844 C 204.296875 103.691406 202.917969 105.285156 202.601562 107.261719 L 202.351562 108.910156 L 200.832031 109.636719 C 199.039062 110.5 197.902344 112.277344 197.878906 114.273438 C 197.859375 116.273438 198.941406 118.078125 200.730469 118.976562 Z M 250.59375 177.746094 L 251.75 180.027344 C 252.078125 180.667969 252.015625 181.394531 251.585938 181.96875 C 251.160156 182.539062 250.503906 182.785156 249.773438 182.679688 L 247.261719 182.21875 C 246.71875 182.105469 246.152344 182.292969 245.769531 182.683594 L 243.960938 184.492188 C 243.457031 184.996094 242.753906 185.171875 242.066406 184.933594 C 241.390625 184.707031 240.925781 184.148438 240.832031 183.433594 L 240.496094 180.902344 C 240.421875 180.355469 240.082031 179.875 239.589844 179.625 L 237.3125 178.464844 C 236.675781 178.136719 236.296875 177.519531 236.304688 176.800781 C 236.308594 176.082031 236.707031 175.472656 237.347656 175.15625 L 239.660156 174.054688 C 240.15625 173.808594 240.511719 173.34375 240.59375 172.796875 L 240.988281 170.269531 C 241.101562 169.566406 241.574219 169.011719 242.261719 168.800781 C 242.445312 168.746094 242.632812 168.707031 242.828125 168.707031 C 243.3125 168.707031 243.777344 168.914062 244.136719 169.28125 L 245.902344 171.140625 C 246.285156 171.546875 246.851562 171.730469 247.386719 171.644531 L 249.910156 171.246094 C 250.648438 171.121094 251.296875 171.410156 251.707031 171.996094 C 252.121094 172.582031 252.171875 173.304688 251.828125 173.9375 L 250.609375 176.179688 C 250.347656 176.667969 250.339844 177.253906 250.59375 177.746094 Z M 249.390625 167.914062 L 247.734375 168.179688 L 246.574219 166.957031 C 245.203125 165.507812 243.15625 164.992188 241.253906 165.582031 C 239.351562 166.175781 237.964844 167.777344 237.65625 169.742188 L 237.40625 171.398438 L 235.886719 172.121094 C 234.09375 172.984375 232.960938 174.761719 232.933594 176.75 C 232.910156 178.753906 234 180.554688 235.78125 181.46875 L 237.273438 182.226562 L 237.488281 183.882812 C 237.757812 185.867188 239.09375 187.492188 240.988281 188.128906 C 241.542969 188.316406 242.109375 188.410156 242.675781 188.410156 C 244.03125 188.410156 245.347656 187.875 246.347656 186.878906 L 247.523438 185.691406 L 249.167969 186 C 251.101562 186.363281 253.09375 185.589844 254.289062 183.984375 C 255.480469 182.382812 255.65625 180.273438 254.75 178.496094 L 253.992188 177.011719 L 254.792969 175.542969 C 255.742188 173.777344 255.609375 171.675781 254.453125 170.042969 C 253.300781 168.417969 251.339844 167.585938 249.390625 167.914062 Z M 178.558594 178.011719 L 179.71875 180.292969 C 180.046875 180.929688 179.988281 181.660156 179.554688 182.230469 C 179.125 182.8125 178.457031 183.074219 177.746094 182.945312 L 175.234375 182.484375 C 174.699219 182.371094 174.132812 182.554688 173.734375 182.949219 L 171.933594 184.757812 C 171.429688 185.269531 170.714844 185.4375 170.039062 185.199219 C 169.351562 184.972656 168.894531 184.410156 168.804688 183.699219 L 168.464844 181.167969 C 168.390625 180.621094 168.050781 180.132812 167.558594 179.886719 L 165.285156 178.730469 C 164.644531 178.402344 164.265625 177.777344 164.269531 177.058594 C 164.285156 176.347656 164.675781 175.730469 165.316406 175.421875 L 167.628906 174.320312 C 168.125 174.074219 168.476562 173.609375 168.558594 173.058594 L 168.960938 170.535156 C 169.070312 169.824219 169.546875 169.269531 170.226562 169.0625 C 170.417969 168.996094 170.605469 168.972656 170.796875 168.972656 C 171.285156 168.972656 171.753906 169.167969 172.109375 169.546875 L 173.875 171.402344 C 174.253906 171.8125 174.800781 171.996094 175.367188 171.90625 L 177.878906 171.5 C 178.589844 171.378906 179.257812 171.675781 179.679688 172.261719 C 180.089844 172.847656 180.132812 173.570312 179.789062 174.195312 L 178.570312 176.441406 C 178.3125 176.933594 178.308594 177.519531 178.558594 178.011719 Z M 182.425781 170.3125 C 181.273438 168.683594 179.320312 167.875 177.351562 168.171875 L 175.699219 168.4375 L 174.546875 167.226562 C 173.175781 165.773438 171.136719 165.261719 169.226562 165.839844 C 167.320312 166.433594 165.941406 168.035156 165.632812 170.003906 L 165.375 171.65625 L 163.863281 172.378906 C 162.0625 173.242188 160.925781 175.019531 160.902344 177.015625 C 160.878906 179.019531 161.964844 180.820312 163.753906 181.726562 L 165.242188 182.488281 L 165.460938 184.148438 C 165.71875 186.117188 167.0625 187.757812 168.957031 188.390625 C 169.511719 188.582031 170.078125 188.675781 170.644531 188.675781 C 171.996094 188.675781 173.3125 188.140625 174.316406 187.136719 L 175.492188 185.953125 L 177.144531 186.257812 C 179.09375 186.628906 181.058594 185.855469 182.261719 184.246094 C 183.453125 182.640625 183.636719 180.539062 182.722656 178.761719 L 181.960938 177.269531 L 182.753906 175.800781 C 183.703125 174.050781 183.578125 171.945312 182.425781 170.3125 Z M 259.988281 186.421875 C 258.53125 195.414062 253.660156 203.296875 246.257812 208.625 C 238.859375 213.960938 229.832031 216.109375 220.851562 214.628906 C 214.1875 213.550781 208.105469 210.53125 203.175781 205.921875 C 203.910156 203.773438 204.496094 201.542969 204.875 199.226562 C 206.863281 186.949219 203.074219 175.042969 195.503906 166.308594 C 201.582031 153.148438 215.285156 145.40625 230.195312 147.097656 C 230.738281 147.097656 231.261719 147.191406 231.796875 147.285156 C 240.78125 148.738281 248.664062 153.617188 253.992188 161.015625 C 259.324219 168.410156 261.449219 177.4375 259.988281 186.421875 Z M 159.101562 229.277344 C 149.347656 227.691406 140.796875 222.40625 135.019531 214.382812 C 129.246094 206.363281 126.9375 196.574219 128.523438 186.816406 C 131.46875 168.683594 147.210938 155.75 165.019531 155.75 C 166.984375 155.75 168.976562 155.902344 170.972656 156.230469 C 191.101562 159.5 204.824219 178.554688 201.542969 198.683594 C 198.277344 218.828125 179.257812 232.597656 159.101562 229.277344 Z M 110.839844 139.195312 C 114.121094 119.007812 133.203125 105.234375 153.394531 108.535156 C 158.558594 109.371094 163.425781 111.292969 167.867188 114.234375 C 180.007812 122.195312 186.34375 136.664062 184 151.097656 C 183.742188 152.691406 183.175781 154.59375 182.578125 156.394531 C 179.15625 154.742188 175.449219 153.539062 171.511719 152.898438 C 152.960938 149.886719 135.199219 160.148438 128.011719 176.6875 C 115.292969 168.945312 108.421875 154.125 110.839844 139.195312 Z M 204.011719 95.105469 C 213 96.566406 220.875 101.449219 226.210938 108.84375 C 231.535156 116.238281 233.664062 125.265625 232.203125 134.253906 C 231.65625 137.628906 230.625 140.777344 229.183594 143.652344 C 214.019531 142.398438 199.8125 150.296875 193.023438 163.695312 C 190.789062 161.535156 188.292969 159.625 185.585938 158.019531 C 186.292969 155.925781 187.003906 153.628906 187.332031 151.632812 C 189.882812 135.898438 182.96875 120.105469 169.726562 111.417969 C 169.628906 111.355469 169.53125 111.300781 169.433594 111.234375 C 176.519531 99.34375 190.296875 92.875 204.011719 95.105469 Z M 256.730469 159.046875 C 250.949219 151.027344 242.445312 145.722656 232.738281 144.042969 C 234.050781 141.167969 235 138.074219 235.535156 134.792969 C 237.140625 124.917969 234.800781 115.003906 228.949219 106.871094 C 223.085938 98.746094 214.429688 93.378906 204.554688 91.777344 C 189.445312 89.308594 174.320312 96.441406 166.539062 109.515625 C 162.582031 107.382812 158.363281 105.925781 153.9375 105.207031 C 131.902344 101.636719 111.097656 116.632812 107.515625 138.65625 C 104.839844 155.144531 112.570312 171.523438 126.789062 179.882812 C 126.097656 181.9375 125.558594 184.070312 125.199219 186.277344 C 123.464844 196.921875 125.984375 207.597656 132.289062 216.347656 C 138.585938 225.101562 147.917969 230.878906 158.558594 232.605469 C 160.738281 232.957031 162.90625 233.128906 165.046875 233.128906 C 180.996094 233.128906 195.402344 223.621094 201.847656 209.273438 C 207.089844 213.839844 213.421875 216.839844 220.316406 217.953125 C 222.347656 218.28125 224.378906 218.449219 226.398438 218.449219 C 234.195312 218.449219 241.769531 216.011719 248.230469 211.363281 C 256.355469 205.507812 261.710938 196.84375 263.320312 186.960938 C 264.925781 177.089844 262.582031 167.175781 256.730469 159.046875 " fill-opacity="1" fill-rule="nonzero"/></g><g fill="#000000" fill-opacity="1"><g transform="translate(98.111855, 272.911456)"><g><path d="M 12.125 -19.734375 L 12.125 -5.15625 C 12.125 -3.53125 11.617188 -2.226562 10.609375 -1.25 C 9.609375 -0.28125 8.289062 0.203125 6.65625 0.203125 C 4.988281 0.203125 3.65625 -0.289062 2.65625 -1.28125 C 1.65625 -2.28125 1.15625 -3.632812 1.15625 -5.34375 L 3.734375 -5.34375 C 3.753906 -4.382812 4.003906 -3.601562 4.484375 -3 C 4.960938 -2.394531 5.6875 -2.09375 6.65625 -2.09375 C 7.613281 -2.09375 8.328125 -2.378906 8.796875 -2.953125 C 9.273438 -3.535156 9.515625 -4.269531 9.515625 -5.15625 L 9.515625 -19.734375 Z M 12.125 -19.734375 "/></g></g></g><g fill="#000000" fill-opacity="1"><g transform="translate(126.331735, 272.911456)"><g><path d="M 13.84375 -4.390625 L 5.234375 -4.390625 L 3.65625 0 L 0.9375 0 L 8.0625 -19.625 L 11.046875 -19.625 L 18.140625 0 L 15.4375 0 Z M 13.109375 -6.484375 L 9.546875 -16.453125 L 5.96875 -6.484375 Z M 13.109375 -6.484375 "/></g></g></g><g fill="#000000" fill-opacity="1"><g transform="translate(158.627013, 272.911456)"><g><path d="M 17.125 -14.015625 C 16.582031 -15.160156 15.789062 -16.050781 14.75 -16.6875 C 13.707031 -17.320312 12.5 -17.640625 11.125 -17.640625 C 9.75 -17.640625 8.507812 -17.320312 7.40625 -16.6875 C 6.300781 -16.050781 5.429688 -15.144531 4.796875 -13.96875 C 4.160156 -12.789062 3.84375 -11.425781 3.84375 -9.875 C 3.84375 -8.332031 4.160156 -6.972656 4.796875 -5.796875 C 5.429688 -4.628906 6.300781 -3.726562 7.40625 -3.09375 C 8.507812 -2.46875 9.75 -2.15625 11.125 -2.15625 C 13.050781 -2.15625 14.632812 -2.726562 15.875 -3.875 C 17.125 -5.03125 17.851562 -6.585938 18.0625 -8.546875 L 10.1875 -8.546875 L 10.1875 -10.640625 L 20.8125 -10.640625 L 20.8125 -8.65625 C 20.65625 -7.039062 20.144531 -5.554688 19.28125 -4.203125 C 18.414062 -2.859375 17.273438 -1.789062 15.859375 -1 C 14.441406 -0.21875 12.863281 0.171875 11.125 0.171875 C 9.289062 0.171875 7.617188 -0.253906 6.109375 -1.109375 C 4.597656 -1.972656 3.40625 -3.171875 2.53125 -4.703125 C 1.65625 -6.234375 1.21875 -7.957031 1.21875 -9.875 C 1.21875 -11.800781 1.65625 -13.535156 2.53125 -15.078125 C 3.40625 -16.617188 4.597656 -17.816406 6.109375 -18.671875 C 7.617188 -19.523438 9.289062 -19.953125 11.125 -19.953125 C 13.21875 -19.953125 15.070312 -19.429688 16.6875 -18.390625 C 18.300781 -17.359375 19.476562 -15.898438 20.21875 -14.015625 Z M 17.125 -14.015625 "/></g></g></g><g fill="#000000" fill-opacity="1"><g transform="translate(193.865647, 272.911456)"><g><path d="M 11.125 0.203125 C 9.289062 0.203125 7.617188 -0.222656 6.109375 -1.078125 C 4.597656 -1.941406 3.40625 -3.144531 2.53125 -4.6875 C 1.65625 -6.226562 1.21875 -7.957031 1.21875 -9.875 C 1.21875 -11.800781 1.65625 -13.535156 2.53125 -15.078125 C 3.40625 -16.617188 4.597656 -17.816406 6.109375 -18.671875 C 7.617188 -19.523438 9.289062 -19.953125 11.125 -19.953125 C 12.976562 -19.953125 14.660156 -19.523438 16.171875 -18.671875 C 17.679688 -17.816406 18.867188 -16.625 19.734375 -15.09375 C 20.597656 -13.5625 21.03125 -11.820312 21.03125 -9.875 C 21.03125 -7.9375 20.597656 -6.203125 19.734375 -4.671875 C 18.867188 -3.140625 17.679688 -1.941406 16.171875 -1.078125 C 14.660156 -0.222656 12.976562 0.203125 11.125 0.203125 Z M 11.125 -2.03125 C 12.5 -2.03125 13.738281 -2.351562 14.84375 -3 C 15.945312 -3.644531 16.816406 -4.5625 17.453125 -5.75 C 18.085938 -6.9375 18.40625 -8.3125 18.40625 -9.875 C 18.40625 -11.46875 18.085938 -12.851562 17.453125 -14.03125 C 16.816406 -15.207031 15.953125 -16.113281 14.859375 -16.75 C 13.765625 -17.394531 12.519531 -17.71875 11.125 -17.71875 C 9.726562 -17.71875 8.484375 -17.394531 7.390625 -16.75 C 6.296875 -16.113281 5.429688 -15.207031 4.796875 -14.03125 C 4.160156 -12.851562 3.84375 -11.46875 3.84375 -9.875 C 3.84375 -8.3125 4.160156 -6.9375 4.796875 -5.75 C 5.429688 -4.5625 6.300781 -3.644531 7.40625 -3 C 8.507812 -2.351562 9.75 -2.03125 11.125 -2.03125 Z M 11.125 -2.03125 "/></g></g></g><g fill="#000000" fill-opacity="1"><g transform="translate(229.33068, 272.911456)"><g><path d="M 8.328125 -19.734375 C 10.472656 -19.734375 12.332031 -19.332031 13.90625 -18.53125 C 15.488281 -17.726562 16.695312 -16.582031 17.53125 -15.09375 C 18.375 -13.601562 18.796875 -11.847656 18.796875 -9.828125 C 18.796875 -7.804688 18.375 -6.050781 17.53125 -4.5625 C 16.695312 -3.082031 15.488281 -1.953125 13.90625 -1.171875 C 12.332031 -0.390625 10.472656 0 8.328125 0 L 2.1875 0 L 2.1875 -19.734375 Z M 8.328125 -2.125 C 10.867188 -2.125 12.8125 -2.796875 14.15625 -4.140625 C 15.5 -5.492188 16.171875 -7.390625 16.171875 -9.828125 C 16.171875 -12.273438 15.492188 -14.1875 14.140625 -15.5625 C 12.796875 -16.945312 10.859375 -17.640625 8.328125 -17.640625 L 4.75 -17.640625 L 4.75 -2.125 Z M 8.328125 -2.125 "/></g></g></g><g fill="#000000" fill-opacity="1"><g transform="translate(262.559914, 272.911456)"><g><path d="M 13.84375 -4.390625 L 5.234375 -4.390625 L 3.65625 0 L 0.9375 0 L 8.0625 -19.625 L 11.046875 -19.625 L 18.140625 0 L 15.4375 0 Z M 13.109375 -6.484375 L 9.546875 -16.453125 L 5.96875 -6.484375 Z M 13.109375 -6.484375 "/></g></g></g><g fill="#000000" fill-opacity="1"><g transform="translate(91.095707, 311.478747)"><g><path d="M 12.875 0 L 4.75 -9 L 4.75 0 L 2.1875 0 L 2.1875 -19.734375 L 4.75 -19.734375 L 4.75 -10.59375 L 12.90625 -19.734375 L 16.171875 -19.734375 L 7.21875 -9.859375 L 16.25 0 Z M 12.875 0 "/></g></g></g><g fill="#000000" fill-opacity="1"><g transform="translate(121.268385, 311.478747)"><g><path d="M 4.703125 -19.734375 L 4.703125 -7.25 C 4.703125 -5.488281 5.128906 -4.179688 5.984375 -3.328125 C 6.847656 -2.484375 8.039062 -2.0625 9.5625 -2.0625 C 11.070312 -2.0625 12.253906 -2.484375 13.109375 -3.328125 C 13.972656 -4.179688 14.40625 -5.488281 14.40625 -7.25 L 14.40625 -19.734375 L 16.984375 -19.734375 L 16.984375 -7.28125 C 16.984375 -5.632812 16.648438 -4.25 15.984375 -3.125 C 15.328125 -2 14.4375 -1.160156 13.3125 -0.609375 C 12.195312 -0.0664062 10.941406 0.203125 9.546875 0.203125 C 8.148438 0.203125 6.890625 -0.0664062 5.765625 -0.609375 C 4.640625 -1.160156 3.75 -2 3.09375 -3.125 C 2.445312 -4.25 2.125 -5.632812 2.125 -7.28125 L 2.125 -19.734375 Z M 4.703125 -19.734375 "/></g></g></g><g fill="#000000" fill-opacity="1"><g transform="translate(153.591975, 311.478747)"><g><path d="M 12.0625 -10.171875 C 12.78125 -10.054688 13.4375 -9.757812 14.03125 -9.28125 C 14.625 -8.8125 15.09375 -8.226562 15.4375 -7.53125 C 15.789062 -6.832031 15.96875 -6.085938 15.96875 -5.296875 C 15.96875 -4.296875 15.710938 -3.394531 15.203125 -2.59375 C 14.691406 -1.789062 13.945312 -1.15625 12.96875 -0.6875 C 12 -0.226562 10.859375 0 9.546875 0 L 2.1875 0 L 2.1875 -19.734375 L 9.265625 -19.734375 C 10.597656 -19.734375 11.734375 -19.507812 12.671875 -19.0625 C 13.617188 -18.625 14.328125 -18.023438 14.796875 -17.265625 C 15.273438 -16.515625 15.515625 -15.664062 15.515625 -14.71875 C 15.515625 -13.550781 15.195312 -12.582031 14.5625 -11.8125 C 13.9375 -11.050781 13.101562 -10.503906 12.0625 -10.171875 Z M 4.75 -11.21875 L 9.09375 -11.21875 C 10.300781 -11.21875 11.234375 -11.5 11.890625 -12.0625 C 12.546875 -12.625 12.875 -13.40625 12.875 -14.40625 C 12.875 -15.40625 12.546875 -16.1875 11.890625 -16.75 C 11.234375 -17.320312 10.28125 -17.609375 9.03125 -17.609375 L 4.75 -17.609375 Z M 9.3125 -2.125 C 10.59375 -2.125 11.59375 -2.425781 12.3125 -3.03125 C 13.03125 -3.632812 13.390625 -4.472656 13.390625 -5.546875 C 13.390625 -6.640625 13.007812 -7.503906 12.25 -8.140625 C 11.5 -8.773438 10.492188 -9.09375 9.234375 -9.09375 L 4.75 -9.09375 L 4.75 -2.125 Z M 9.3125 -2.125 "/></g></g></g><g fill="#000000" fill-opacity="1"><g transform="translate(184.160875, 311.478747)"><g><path d="M 4.75 -19.734375 L 4.75 0 L 2.1875 0 L 2.1875 -19.734375 Z M 4.75 -19.734375 "/></g></g></g><g fill="#000000" fill-opacity="1"><g transform="translate(204.343156, 311.478747)"><g><path d="M 1.21875 -9.875 C 1.21875 -11.800781 1.648438 -13.535156 2.515625 -15.078125 C 3.390625 -16.617188 4.578125 -17.820312 6.078125 -18.6875 C 7.578125 -19.550781 9.238281 -19.984375 11.0625 -19.984375 C 13.21875 -19.984375 15.097656 -19.460938 16.703125 -18.421875 C 18.304688 -17.390625 19.476562 -15.921875 20.21875 -14.015625 L 17.125 -14.015625 C 16.582031 -15.203125 15.796875 -16.113281 14.765625 -16.75 C 13.734375 -17.394531 12.5 -17.71875 11.0625 -17.71875 C 9.6875 -17.71875 8.453125 -17.394531 7.359375 -16.75 C 6.265625 -16.113281 5.40625 -15.207031 4.78125 -14.03125 C 4.15625 -12.851562 3.84375 -11.46875 3.84375 -9.875 C 3.84375 -8.3125 4.15625 -6.9375 4.78125 -5.75 C 5.40625 -4.570312 6.265625 -3.660156 7.359375 -3.015625 C 8.453125 -2.378906 9.6875 -2.0625 11.0625 -2.0625 C 12.5 -2.0625 13.734375 -2.378906 14.765625 -3.015625 C 15.796875 -3.648438 16.582031 -4.5625 17.125 -5.75 L 20.21875 -5.75 C 19.476562 -3.863281 18.304688 -2.40625 16.703125 -1.375 C 15.097656 -0.34375 13.21875 0.171875 11.0625 0.171875 C 9.238281 0.171875 7.578125 -0.253906 6.078125 -1.109375 C 4.578125 -1.972656 3.390625 -3.171875 2.515625 -4.703125 C 1.648438 -6.234375 1.21875 -7.957031 1.21875 -9.875 Z M 1.21875 -9.875 "/></g></g></g><g fill="#000000" fill-opacity="1"><g transform="translate(239.411968, 311.478747)"><g><path d="M 12.875 0 L 4.75 -9 L 4.75 0 L 2.1875 0 L 2.1875 -19.734375 L 4.75 -19.734375 L 4.75 -10.59375 L 12.90625 -19.734375 L 16.171875 -19.734375 L 7.21875 -9.859375 L 16.25 0 Z M 12.875 0 "/></g></g></g><g fill="#000000" fill-opacity="1"><g transform="translate(269.584646, 311.478747)"><g><path d="M 13.84375 -4.390625 L 5.234375 -4.390625 L 3.65625 0 L 0.9375 0 L 8.0625 -19.625 L 11.046875 -19.625 L 18.140625 0 L 15.4375 0 Z M 13.109375 -6.484375 L 9.546875 -16.453125 L 5.96875 -6.484375 Z M 13.109375 -6.484375 "/></g></g></g><g fill="#000000" fill-opacity="1"><g transform="translate(192.87529, 344.748306)"><g/></g></g></svg>